
<svg>
    <symbol id="rutube_ID" width="25" height="25" viewBox="0 0 25 25" fill="none" xmlns="http://www.w3.org/2000/svg">
        <path 
            id="rutube_circle_ID" d="M24.7099 12.6281C31.4651 12.6281 36.9413 7.15191 36.9413 0.396693C36.9413 -6.35853 31.4651 -11.8347 24.7099 -11.8347C17.9547 -11.8347 12.4785 -6.35853 12.4785
            0.396693C12.4785 7.15191 17.9547 12.6281 24.7099 12.6281Z" fill="currentColor"> // Красный кружок сверху
        </path>
        <path 
            id="rutube_letter_ID" d="M15.3586 12.0697H8.13142V9.2098H15.3586C15.7808 9.2098 16.0743 9.28338
            16.2216 9.41188C16.3689 9.54037 16.4602 9.7787 16.4602 10.1268V11.1537C16.4602 11.5206 16.3689 11.7589 16.2216 11.8874C16.0743 12.0159 15.7808 12.0708 15.3586
            12.0708V12.0697ZM15.8544 6.51355H5.06641V18.7439H8.13142V14.7648H13.7799L16.4602 18.7439H19.8924L16.9373 14.7462C18.0267 14.5847 18.516 14.2508 18.9194
            13.7006C19.3229 13.1504 19.5252 12.2707 19.5252 11.0966V10.1796C19.5252 9.48326 19.4515 8.93303 19.3229 8.5113C19.1943 8.08956 18.9744 7.72274 18.6622
            7.39326C18.3324 7.08135 17.9652 6.8617 17.5243 6.71453C17.0835 6.58604 16.5327 6.51245 15.8544 6.51245V6.51355Z" fill="currentColor"> // Буква
        </path>
    </symbol>
</svg>
