<svg>
	<symbol id="1_choose_product_ID" width="62" height="62" viewBox="0 0 62 62" fill="none" xmlns="http://www.w3.org/2000/svg">
		<circle id="1_choose_product_ellipse_ID" cx="31" cy="31" r="31" fill="currentColor" fill-opacity="1"/>
		<path id="1_choose_product_vector_1_ID" d="M27.99 41C27.44 41 26.99 40.55 26.99 40C26.99 39.44 27.44 39 27.99 39C28.55 39 28.99 39.44 28.99 40C28.99 40.55 28.55 41 27.99 41Z" stroke="currentColor" stroke-opacity="1" stroke-width="2" stroke-linejoin="round"/>
		<path id="1_choose_product_vector_2_ID" d="M38.99 41C38.44 41 37.99 40.55 37.99 40C37.99 39.44 38.44 39 38.99 39C39.55 39 39.99 39.44 39.99 40C39.99 40.55 39.55 41 38.99 41Z" stroke="currentColor" stroke-opacity="1" stroke-width="2" stroke-linejoin="round"/>
		<path id="1_choose_product_vector_3_ID" d="M20 20L24 20L26.68 33.39C26.77 33.85 27.02 34.26 27.38 34.55C27.75 34.85 28.21 35 28.68 35L38.4 35C38.86 35 39.32 34.85 39.69 34.55C40.05 34.26 40.3 33.85 40.4 33.39L42 25L25 25" stroke="currentColor" fill="none" stroke-opacity="1" stroke-width="2" stroke-linejoin="round" stroke-linecap="round"/>
	</symbol>
</svg>
