<svg>
	<symbol id="2_do_payment_ID" width="62" height="62" viewBox="0 0 62 62" fill="none" xmlns="http://www.w3.org/2000/svg">
		<circle id="2_do_payment_ellipse_ID" cx="31" cy="31" r="31" fill="currentColor" fill-opacity="1"/>
		<path id="2_do_payment_vector_1_ID" d="M41.31 33.74C40.93 33.74 40.62 34.05 40.62 34.43L40.62 39.24L21.37 39.24L21.37 30.99L28.93 30.99C29.31 30.99 29.62 30.69 29.62 30.31C29.62 29.93 29.31 29.62 28.93 29.62L21.37 29.62L21.37 26.87L28.93 26.87C29.31 26.87 29.62 26.56 29.62 26.18C29.62 25.8 29.31 25.49 28.93 25.49L21.37 25.49C20.61 25.49 20 26.11 20 26.87L20 39.24C20 40 20.61 40.62 21.37 40.62L40.62 40.62C41.38 40.62 42 40 42 39.24L42 34.43C42 34.05 41.69 33.74 41.31 33.74Z" fill="currentColor" fill-opacity="1" fill-rule="nonzero"/>
		<path id="2_do_payment_vector_2_ID" d="M26.18 33.74L23.43 33.74C23.05 33.74 22.75 34.05 22.75 34.43C22.75 34.81 23.05 35.12 23.43 35.12L26.18 35.12C26.56 35.12 26.87 34.81 26.87 34.43C26.87 34.05 26.56 33.74 26.18 33.74Z" fill="currentColor" fill-opacity="1" fill-rule="nonzero"/>
		<path id="2_do_payment_vector_3_ID" d="M41.58 23.49L36.77 21.43C36.59 21.35 36.4 21.35 36.22 21.43L31.41 23.49C31.16 23.6 31 23.85 31 24.12L31 26.87C31 30.65 32.39 32.86 36.15 35.03C36.26 35.09 36.38 35.12 36.5 35.12C36.61 35.12 36.73 35.09 36.84 35.03C40.6 32.87 42 30.66 42 26.87L42 24.12C42 23.85 41.83 23.6 41.58 23.49ZM40.62 26.87C40.62 30.05 39.57 31.79 36.5 33.64C33.42 31.79 32.37 30.04 32.37 26.87L32.37 24.57L36.5 22.81L40.62 24.57L40.62 26.87Z" fill="currentColor" fill-opacity="1" fill-rule="nonzero"/>
		<path id="2_do_payment_vector_4_ID" d="M38.99 25.64C38.69 25.41 38.26 25.46 38.02 25.75L35.86 28.46L35 27.18C34.79 26.86 34.36 26.78 34.05 26.99C33.74 27.2 33.65 27.62 33.86 27.94L35.24 30C35.36 30.18 35.56 30.3 35.78 30.31C35.79 30.31 35.8 30.31 35.81 30.31C36.02 30.31 36.21 30.21 36.35 30.05L39.1 26.61C39.33 26.31 39.28 25.88 38.99 25.64Z" fill="currentColor" fill-opacity="1" fill-rule="nonzero"/>
	</symbol>
</svg>
