<svg>
	<symbol id="3_confirmation_payment_ID" width="62" height="62" viewBox="0 0 62 62" fill="none" xmlns="http://www.w3.org/2000/svg">
		<circle id="3_confirmation_payment_ellipse_ID" cx="31" cy="31" r="31" fill="currentColor" fill-opacity="1"/>
		<path id="3_confirmation_payment_vector_1_ID" d="M25.86 36.13L28.79 36.13C29 36.13 29.16 35.96 29.16 35.76C29.16 35.56 29 35.39 28.79 35.39L25.86 35.39C25.66 35.39 25.49 35.56 25.49 35.76C25.49 35.96 25.66 36.13 25.86 36.13Z" fill="currentColor" fill-opacity="1" fill-rule="nonzero"/>
		<path id="3_confirmation_payment_vector_2_ID" d="M20.66 37.6C20.78 37.77 20.92 37.96 21.07 38.22C21.14 38.32 21.21 38.43 21.28 38.53C21.58 38.9 21.77 39.34 21.83 39.81L21.83 40.89C21.83 41.5 22.32 42 22.93 42L27.33 42C27.94 42 28.43 41.5 28.43 40.89L28.43 39.43C28.43 39.29 28.51 39.17 28.63 39.1C29.34 38.74 29.96 38.22 30.46 37.6L30.63 37.6C30.76 37.6 30.89 37.58 31.02 37.54L32.16 39.27C32.72 40.04 33.67 40.42 34.61 40.26C34.79 40.23 34.97 40.3 35.08 40.45L35.78 41.48C36.15 42.01 36.88 42.15 37.41 41.79L41.48 38.97C41.73 38.8 41.91 38.53 41.97 38.23C42.03 37.93 41.97 37.62 41.8 37.36C41.64 36.99 41.59 36.58 41.65 36.17C41.66 36.08 41.66 35.98 41.67 35.89C41.68 35.57 41.66 35.26 41.64 34.96C41.63 34.85 41.63 34.73 41.62 34.62C41.56 33.11 41.08 31.66 40.24 30.41L38.09 27.24C37.66 26.57 36.78 26.35 36.09 26.75C35.81 26.92 35.6 27.17 35.48 27.46C35.12 27.19 34.65 27.1 34.21 27.22C33.77 27.34 33.42 27.66 33.25 28.09C32.92 27.84 32.5 27.74 32.1 27.82L32.1 21.46C32.1 20.65 31.44 20 30.63 20L24.03 20C23.22 20 22.56 20.65 22.56 21.46L22.56 26.28C22.46 26.25 22.35 26.23 22.23 26.23L22.17 26.23C21.62 26.23 21.15 26.65 21.09 27.2C21.03 27.7 20.93 28.2 20.8 28.69C20.71 28.96 20.61 29.22 20.5 29.48C20.26 29.95 20.11 30.48 20.07 31.01C20.06 31.32 20.07 31.66 20.09 31.98C20.1 32.28 20.11 32.59 20.1 32.88C20.1 33.07 20.08 33.37 20.06 33.71C20.02 34.44 19.97 35.35 20.01 35.79C20.01 36.45 20.24 37.09 20.66 37.6ZM32.98 28.85L33.4 29.46C33.42 29.49 33.45 29.52 33.49 29.55C33.5 29.55 33.5 29.56 33.51 29.56C33.55 29.58 33.58 29.6 33.62 29.61L33.64 29.61C33.66 29.61 33.68 29.61 33.7 29.61C33.72 29.61 33.73 29.61 33.75 29.61C33.76 29.61 33.77 29.6 33.78 29.6C33.83 29.59 33.87 29.58 33.91 29.55C34.07 29.44 34.12 29.21 34 29.04C33.78 28.71 33.86 28.25 34.2 28.02C34.54 27.8 34.99 27.88 35.22 28.22L35.63 28.83C35.74 29 35.97 29.04 36.13 28.92C36.3 28.81 36.34 28.59 36.24 28.42C36.12 28.25 36.08 28.05 36.13 27.85C36.17 27.65 36.29 27.48 36.46 27.38C36.82 27.19 37.27 27.31 37.48 27.65L39.63 30.82C40.4 31.96 40.83 33.28 40.89 34.65C40.89 34.77 40.9 34.89 40.91 35C40.93 35.3 40.94 35.59 40.93 35.87C40.93 35.96 40.93 36.05 40.92 36.14C40.84 36.69 40.93 37.26 41.18 37.76C41.25 37.86 41.27 37.98 41.25 38.09C41.23 38.21 41.16 38.31 41.06 38.37L37 41.19C36.8 41.32 36.52 41.27 36.39 41.07L35.68 40.03C35.41 39.66 34.96 39.47 34.51 39.54C33.85 39.67 33.17 39.4 32.77 38.86L31.48 36.91L31.48 36.91C31.48 36.9 31.47 36.9 31.47 36.9L30.5 35.42C30.23 35.02 30.2 34.34 30.58 34.08L30.99 33.77L33.45 37.39C33.52 37.5 33.65 37.57 33.78 37.56C33.92 37.55 34.04 37.47 34.09 37.35C34.15 37.23 34.14 37.08 34.06 36.98L31.41 33.1C31.4 33.07 31.39 33.04 31.37 33.01C31.36 33 31.35 32.99 31.33 32.98L27.09 26.75C26.94 26.53 26.92 26.25 27.04 26.01C27.15 25.78 27.38 25.62 27.64 25.6C27.91 25.59 28.16 25.71 28.3 25.93L31.37 30.39C31.44 30.5 31.57 30.56 31.7 30.55C31.83 30.54 31.95 30.46 32.01 30.34C32.06 30.22 32.05 30.08 31.97 29.97L31.77 29.68C31.77 29.68 31.77 29.67 31.77 29.67C31.54 29.34 31.63 28.88 31.97 28.65C32.3 28.43 32.76 28.51 32.98 28.85ZM29.16 25.88L28.91 25.51C28.62 25.07 28.11 24.82 27.59 24.86C27.06 24.9 26.6 25.21 26.37 25.69C26.14 26.16 26.18 26.72 26.48 27.16L26.79 27.6C25.89 27.32 25.35 26.41 25.54 25.49C25.73 24.57 26.59 23.94 27.52 24.04C28.45 24.13 29.16 24.92 29.16 25.86L29.16 25.88ZM29.16 20.73L29.16 21.1C29.16 21.3 29 21.46 28.8 21.46L25.86 21.46C25.66 21.46 25.5 21.3 25.5 21.1L25.5 20.73L29.16 20.73ZM23.3 21.46C23.3 21.06 23.62 20.73 24.03 20.73L24.76 20.73L24.76 21.1C24.76 21.7 25.25 22.2 25.86 22.2L28.8 22.2C29.4 22.2 29.9 21.7 29.9 21.1L29.9 20.73L30.63 20.73C31.03 20.73 31.36 21.06 31.36 21.46L31.36 28.21C31.23 28.33 31.13 28.47 31.06 28.64L29.74 26.73C29.84 26.45 29.9 26.16 29.9 25.86C29.9 24.44 28.75 23.3 27.33 23.3C25.91 23.3 24.76 24.44 24.76 25.86C24.76 27.28 25.91 28.43 27.33 28.43L27.35 28.43L30.57 33.16L30.15 33.49C29.4 33.99 29.41 35.13 29.89 35.83L30.57 36.86L24.03 36.86C23.62 36.86 23.3 36.53 23.3 36.13L23.3 31.78C23.73 30.84 23.98 29.83 24.03 28.8L24.03 28.8C24.03 27.68 23.68 27.05 23.3 26.69L23.3 21.46ZM20.8 33.75C20.81 33.4 20.83 33.1 20.84 32.9C20.84 32.59 20.83 32.27 20.82 31.95C20.81 31.63 20.8 31.32 20.8 31.03C20.84 30.59 20.96 30.16 21.17 29.77C21.3 29.49 21.41 29.19 21.5 28.89C21.65 28.37 21.75 27.83 21.82 27.28C21.84 27.1 21.99 26.96 22.17 26.96L22.23 26.96C22.38 26.97 22.53 27.02 22.66 27.11C22.69 27.14 22.72 27.17 22.76 27.19C23.03 27.42 23.3 27.87 23.3 28.8C23.29 28.81 23.29 28.83 23.3 28.85C23.36 29.93 22.58 31.68 22.4 31.77C22.25 31.84 22.16 32.01 22.2 32.18C22.24 32.34 22.39 32.46 22.56 32.46L22.56 36.13C22.56 36.94 23.22 37.6 24.03 37.6L29.48 37.6C29.11 37.93 28.7 38.23 28.26 38.47C27.92 38.66 27.7 39.03 27.7 39.43L27.7 40.89C27.7 41.1 27.53 41.26 27.33 41.26L22.93 41.26C22.73 41.26 22.56 41.1 22.56 40.89L22.56 39.81C22.51 39.2 22.27 38.61 21.89 38.13C21.82 38.03 21.76 37.93 21.7 37.83C21.53 37.56 21.39 37.36 21.26 37.18C20.92 36.78 20.74 36.26 20.74 35.73C20.71 35.35 20.76 34.46 20.8 33.75Z" fill="currentColor" fill-opacity="1" fill-rule="nonzero"/>
		<path id="3_confirmation_payment_vector_3_ID" d="M23.66 40.53L24.03 40.53C24.23 40.53 24.39 40.36 24.39 40.16C24.39 39.96 24.23 39.8 24.03 39.8L23.66 39.8C23.46 39.8 23.29 39.96 23.29 40.16C23.29 40.36 23.46 40.53 23.66 40.53Z" fill="currentColor" fill-opacity="1" fill-rule="nonzero"/>
		<path id="3_confirmation_payment_vector_4_ID" d="M25.49 40.53L26.59 40.53C26.8 40.53 26.96 40.36 26.96 40.16C26.96 39.96 26.8 39.8 26.59 39.8L25.49 39.8C25.29 39.8 25.13 39.96 25.13 40.16C25.13 40.36 25.29 40.53 25.49 40.53Z" fill="currentColor" fill-opacity="1" fill-rule="nonzero"/>
		<path id="3_confirmation_payment_vector_5_ID" d="M37.23 40.07C37.31 40.07 37.38 40.04 37.44 40L37.74 39.8C37.85 39.73 37.92 39.6 37.91 39.47C37.9 39.33 37.82 39.22 37.7 39.16C37.58 39.1 37.44 39.12 37.33 39.19L37.03 39.4C36.89 39.49 36.83 39.65 36.88 39.81C36.93 39.96 37.07 40.07 37.23 40.07Z" fill="currentColor" fill-opacity="1" fill-rule="nonzero"/>
		<path id="3_confirmation_payment_vector_6_ID" d="M38.75 39.04C38.82 39.04 38.89 39.02 38.96 38.98L40.26 38.09C40.38 38.02 40.45 37.89 40.44 37.76C40.43 37.62 40.35 37.5 40.23 37.44C40.1 37.39 39.96 37.4 39.85 37.49L38.54 38.37C38.41 38.46 38.35 38.63 38.4 38.78C38.45 38.94 38.59 39.04 38.75 39.04L38.75 39.04Z" fill="currentColor" fill-opacity="1" fill-rule="nonzero"/>
	</symbol>
</svg>
