<svg>
	<symbol id="4_order_shipped_ID" width="62" height="62" viewBox="0 0 62 62" fill="none" xmlns="http://www.w3.org/2000/svg">
		<circle id="4_order_shipped_ellipse_ID" cx="31" cy="31" r="31" fill="currentColor" fill-opacity="1"/>
		<path id="4_order_shipped_vector_1_ID" d="M40.45 29.94L39.89 27.66C40.04 27.62 40.16 27.49 40.16 27.32L40.16 26.95C40.16 26.16 39.51 25.51 38.71 25.51L36.12 25.51L36.12 24.75C36.12 24.36 35.8 24.04 35.4 24.04L22.18 24.04C21.78 24.04 21.46 24.36 21.46 24.75L21.46 31C21.46 31.19 21.62 31.34 21.81 31.34C22 31.34 22.15 31.19 22.15 31L22.15 24.75C22.15 24.74 22.16 24.73 22.18 24.73L35.4 24.73C35.42 24.73 35.43 24.74 35.43 24.75L35.43 31C35.43 31.19 35.58 31.34 35.77 31.34C35.96 31.34 36.12 31.19 36.12 31L36.12 30.6L40.18 30.6C40.18 30.6 40.18 30.6 40.18 30.6C40.18 30.6 40.18 30.6 40.18 30.6C40.68 30.61 41.11 30.93 41.25 31.39L40.18 31.39C39.99 31.39 39.84 31.54 39.84 31.73L39.84 32.47C39.84 33.06 40.32 33.54 40.92 33.54L41.31 33.54L41.31 35.06L40.41 35.06C40.11 34.21 39.3 33.59 38.34 33.59C37.39 33.59 36.58 34.21 36.28 35.06L36.12 35.06L36.12 32.47C36.12 32.27 35.96 32.12 35.77 32.12C35.58 32.12 35.43 32.27 35.43 32.47L35.43 35.06L28.28 35.06C27.98 34.21 27.17 33.59 26.22 33.59C25.26 33.59 24.45 34.21 24.16 35.06L22.18 35.06C22.16 35.06 22.15 35.05 22.15 35.04L22.15 34.28L23.65 34.28C23.84 34.28 23.99 34.12 23.99 33.93C23.99 33.74 23.84 33.59 23.65 33.59L20.34 33.59C20.15 33.59 20 33.74 20 33.93C20 34.12 20.15 34.28 20.34 34.28L21.46 34.28L21.46 35.04C21.46 35.43 21.78 35.75 22.18 35.75L24.04 35.75C24.04 35.76 24.04 35.76 24.04 35.77C24.04 36.97 25.02 37.95 26.22 37.95C27.42 37.95 28.4 36.97 28.4 35.77C28.4 35.76 28.4 35.76 28.4 35.75L36.16 35.75C36.16 35.76 36.16 35.76 36.16 35.77C36.16 36.97 37.14 37.95 38.34 37.95C39.55 37.95 40.53 36.97 40.53 35.77C40.53 35.76 40.52 35.76 40.52 35.75L41.65 35.75C41.84 35.75 42 35.59 42 35.4L42 31.73C42 30.82 41.33 30.07 40.45 29.94ZM36.12 26.2L38.71 26.2C39.13 26.2 39.47 26.54 39.47 26.95L39.47 26.98L36.12 26.98L36.12 26.2ZM36.12 29.92L36.12 27.67L39.18 27.67L39.74 29.92L36.12 29.92ZM26.22 37.26C25.4 37.26 24.73 36.59 24.73 35.77C24.73 34.95 25.4 34.28 26.22 34.28C27.04 34.28 27.71 34.95 27.71 35.77C27.71 36.59 27.04 37.26 26.22 37.26ZM38.34 37.26C37.52 37.26 36.85 36.59 36.85 35.77C36.85 34.95 37.52 34.28 38.34 34.28C39.17 34.28 39.84 34.95 39.84 35.77C39.84 36.59 39.17 37.26 38.34 37.26ZM41.31 32.86L40.92 32.86C40.7 32.86 40.53 32.68 40.53 32.47L40.53 32.07L41.31 32.07L41.31 32.86L41.31 32.86Z" fill="currentColor" fill-opacity="1" fill-rule="nonzero"/>
		<path id="4_order_shipped_vector_2_ID" d="M26.22 35.06C25.83 35.06 25.51 35.38 25.51 35.77C25.51 36.16 25.83 36.48 26.22 36.48C26.61 36.48 26.93 36.16 26.93 35.77C26.93 35.38 26.61 35.06 26.22 35.06Z" fill="currentColor" fill-opacity="1" fill-rule="nonzero"/>
		<path id="4_order_shipped_vector_3_ID" d="M38.34 35.06C37.95 35.06 37.63 35.38 37.63 35.77C37.63 36.16 37.95 36.48 38.34 36.48C38.74 36.48 39.06 36.16 39.06 35.77C39.06 35.38 38.74 35.06 38.34 35.06Z" fill="currentColor" fill-opacity="1" fill-rule="nonzero"/>
		<path id="4_order_shipped_vector_4_ID" d="M34.3 33.59L29.16 33.59C28.97 33.59 28.81 33.74 28.81 33.93C28.81 34.12 28.97 34.28 29.16 34.28L34.3 34.28C34.49 34.28 34.65 34.12 34.65 33.93C34.65 33.74 34.49 33.59 34.3 33.59Z" fill="currentColor" fill-opacity="1" fill-rule="nonzero"/>
		<path id="4_order_shipped_vector_5_ID" d="M25.48 32.12L21.07 32.12C20.88 32.12 20.73 32.27 20.73 32.46C20.73 32.65 20.88 32.81 21.07 32.81L25.48 32.81C25.67 32.81 25.83 32.65 25.83 32.46C25.83 32.27 25.67 32.12 25.48 32.12Z" fill="currentColor" fill-opacity="1" fill-rule="nonzero"/>
		<path id="4_order_shipped_vector_6_ID" d="M31.97 27.44C31.84 27.31 31.62 27.31 31.49 27.44L28.42 30.51L26.83 28.91C26.69 28.78 26.48 28.78 26.34 28.91C26.21 29.05 26.21 29.27 26.34 29.4L28.18 31.24C28.25 31.31 28.33 31.34 28.42 31.34C28.51 31.34 28.6 31.31 28.67 31.24L31.97 27.93C32.11 27.8 32.11 27.58 31.97 27.44Z" fill="currentColor" fill-opacity="1" fill-rule="nonzero"/>
	</symbol>
</svg>